<mxfile host="65bd71144e">
    <diagram id="Iyo0TrPtx6GPLnK4ScY2" name="Page-1">
        <mxGraphModel dx="884" dy="767" grid="0" gridSize="10" guides="1" tooltips="1" connect="1" arrows="1" fold="1" page="1" pageScale="1" pageWidth="850" pageHeight="1100" background="#ffffff" math="0" shadow="0">
            <root>
                <mxCell id="0"/>
                <mxCell id="1" parent="0"/>
                <mxCell id="2" value="" style="shape=cylinder3;whiteSpace=wrap;html=1;boundedLbl=1;backgroundOutline=1;size=15;hachureGap=4;fontFamily=Helvetica;fontSize=20;fillColor=none;strokeColor=#000000;fontColor=#000000;" parent="1" vertex="1">
                    <mxGeometry x="230" y="340" width="360" height="470" as="geometry"/>
                </mxCell>
                <mxCell id="50" value="" style="shape=waypoint;fillStyle=solid;size=6;pointerEvents=1;points=[];fillColor=none;resizable=0;rotatable=0;perimeter=centerPerimeter;snapToPoint=1;hachureGap=4;fontFamily=Helvetica;fontSize=20;strokeColor=#000000;fontColor=#000000;" parent="1" vertex="1">
                    <mxGeometry x="303" y="508" width="20" height="20" as="geometry"/>
                </mxCell>
                <mxCell id="66" value="" style="line;strokeWidth=2;direction=south;html=1;hachureGap=4;fontFamily=Helvetica;fontSize=20;fillColor=none;strokeColor=#000000;fontColor=#000000;" parent="1" vertex="1">
                    <mxGeometry x="250" y="280" width="10" height="240" as="geometry"/>
                </mxCell>
                <mxCell id="67" value="" style="line;strokeWidth=2;direction=south;html=1;hachureGap=4;fontFamily=Helvetica;fontSize=20;fillColor=none;strokeColor=#000000;fontColor=#000000;" parent="1" vertex="1">
                    <mxGeometry x="560" y="280" width="10" height="250" as="geometry"/>
                </mxCell>
                <mxCell id="70" value="" style="shape=corner;whiteSpace=wrap;html=1;hachureGap=4;fontFamily=Helvetica;fontSize=20;dx=20;dy=20;fillColor=none;strokeColor=#000000;fontColor=#000000;" parent="1" vertex="1">
                    <mxGeometry x="520" y="228.5" width="160" height="190" as="geometry"/>
                </mxCell>
                <mxCell id="72" value="" style="shape=corner;whiteSpace=wrap;html=1;hachureGap=4;fontFamily=Helvetica;fontSize=20;dx=20;dy=20;flipV=0;flipH=1;fillColor=none;strokeColor=#000000;fontColor=#000000;" parent="1" vertex="1">
                    <mxGeometry x="133" y="228.5" width="170" height="190" as="geometry"/>
                </mxCell>
                <mxCell id="78" value="Base in" style="text;html=1;fillColor=none;align=center;verticalAlign=middle;whiteSpace=wrap;rounded=0;hachureGap=4;fontFamily=Helvetica;fontSize=20;strokeColor=none;fontColor=#000000;" parent="1" vertex="1">
                    <mxGeometry x="178" y="191.5" width="90" height="30" as="geometry"/>
                </mxCell>
                <mxCell id="79" value="Acid in" style="text;html=1;fillColor=none;align=center;verticalAlign=middle;whiteSpace=wrap;rounded=0;hachureGap=4;fontFamily=Helvetica;fontSize=20;strokeColor=none;fontColor=#000000;" parent="1" vertex="1">
                    <mxGeometry x="545" y="189.5" width="90" height="30" as="geometry"/>
                </mxCell>
                <mxCell id="161" style="edgeStyle=none;sketch=0;html=1;exitX=1;exitY=1;exitDx=0;exitDy=0;strokeColor=#000000;strokeWidth=1;fontSize=16;fontColor=#000000;endArrow=classic;endFill=1;" edge="1" parent="1" source="80">
                    <mxGeometry relative="1" as="geometry">
                        <mxPoint x="250" y="336" as="targetPoint"/>
                    </mxGeometry>
                </mxCell>
                <mxCell id="80" value="Thermometer" style="text;html=1;fillColor=none;align=center;verticalAlign=middle;whiteSpace=wrap;rounded=0;hachureGap=4;fontFamily=Helvetica;fontSize=20;strokeColor=none;fontColor=#000000;" parent="1" vertex="1">
                    <mxGeometry x="90" y="290" width="122" height="18" as="geometry"/>
                </mxCell>
                <mxCell id="160" style="edgeStyle=none;sketch=0;html=1;exitX=0;exitY=0.75;exitDx=0;exitDy=0;strokeColor=#000000;strokeWidth=1;fontSize=16;fontColor=#000000;endArrow=classic;endFill=1;" edge="1" parent="1" source="81">
                    <mxGeometry relative="1" as="geometry">
                        <mxPoint x="572" y="335" as="targetPoint"/>
                    </mxGeometry>
                </mxCell>
                <mxCell id="81" value="pH meter" style="text;html=1;fillColor=none;align=center;verticalAlign=middle;whiteSpace=wrap;rounded=0;hachureGap=4;fontFamily=Helvetica;fontSize=20;strokeColor=none;fontColor=#000000;" parent="1" vertex="1">
                    <mxGeometry x="653" y="278" width="89" height="30" as="geometry"/>
                </mxCell>
                <mxCell id="86" value="" style="endArrow=none;html=1;hachureGap=4;fontFamily=Helvetica;fontSize=16;curved=1;entryX=1;entryY=1;entryDx=0;entryDy=-15;entryPerimeter=0;fillColor=none;strokeColor=#000000;fontColor=#000000;exitX=0;exitY=1;exitDx=0;exitDy=-15;exitPerimeter=0;" parent="1" source="2" target="2" edge="1">
                    <mxGeometry width="50" height="50" relative="1" as="geometry">
                        <mxPoint x="247" y="837" as="sourcePoint"/>
                        <mxPoint x="580" y="830" as="targetPoint"/>
                        <Array as="points">
                            <mxPoint x="400" y="860"/>
                        </Array>
                    </mxGeometry>
                </mxCell>
                <mxCell id="88" value="" style="endArrow=none;html=1;hachureGap=4;fontFamily=Helvetica;fontSize=16;curved=1;entryX=1;entryY=0;entryDx=0;entryDy=15;entryPerimeter=0;exitX=1;exitY=1;exitDx=0;exitDy=-15;exitPerimeter=0;fillColor=none;strokeColor=#000000;fontColor=#000000;" parent="1" source="2" target="2" edge="1">
                    <mxGeometry width="50" height="50" relative="1" as="geometry">
                        <mxPoint x="660" y="530" as="sourcePoint"/>
                        <mxPoint x="710" y="480" as="targetPoint"/>
                        <Array as="points">
                            <mxPoint x="640" y="580"/>
                        </Array>
                    </mxGeometry>
                </mxCell>
                <mxCell id="91" value="Water in" style="shape=corner;whiteSpace=wrap;html=1;hachureGap=4;fontFamily=Helvetica;fontSize=20;fillColor=none;strokeColor=#000000;fontColor=#000000;" parent="1" vertex="1">
                    <mxGeometry x="81" y="481" width="126" height="64" as="geometry"/>
                </mxCell>
                <mxCell id="97" value="Water out" style="shape=corner;whiteSpace=wrap;html=1;hachureGap=4;fontFamily=Helvetica;fontSize=20;fillColor=none;strokeColor=#000000;fontColor=#000000;flipH=1;" parent="1" vertex="1">
                    <mxGeometry x="614" y="601" width="134" height="61" as="geometry"/>
                </mxCell>
                <mxCell id="171" style="edgeStyle=none;curved=1;sketch=0;html=1;exitX=0.75;exitY=0;exitDx=0;exitDy=0;strokeColor=#000000;strokeWidth=1;fontSize=16;fontColor=#000000;endArrow=classic;endFill=1;" edge="1" parent="1" source="101">
                    <mxGeometry relative="1" as="geometry">
                        <mxPoint x="199.6190476190476" y="571.0952380952381" as="targetPoint"/>
                    </mxGeometry>
                </mxCell>
                <mxCell id="101" value="Outer chamber" style="text;html=1;fillColor=none;align=center;verticalAlign=middle;whiteSpace=wrap;rounded=0;hachureGap=4;fontFamily=Helvetica;fontSize=20;strokeColor=none;fontColor=#000000;" vertex="1" parent="1">
                    <mxGeometry x="34" y="605" width="140" height="30" as="geometry"/>
                </mxCell>
                <mxCell id="172" style="edgeStyle=none;curved=1;sketch=0;html=1;exitX=0.75;exitY=1;exitDx=0;exitDy=0;strokeColor=#000000;strokeWidth=1;fontSize=16;fontColor=#000000;endArrow=classic;endFill=1;" edge="1" parent="1" source="102">
                    <mxGeometry relative="1" as="geometry">
                        <mxPoint x="224.3809523809523" y="695.8571428571429" as="targetPoint"/>
                    </mxGeometry>
                </mxCell>
                <mxCell id="102" value="Inner chamber" style="text;html=1;fillColor=none;align=center;verticalAlign=middle;whiteSpace=wrap;rounded=0;hachureGap=4;fontFamily=Helvetica;fontSize=20;strokeColor=none;fontColor=#000000;" vertex="1" parent="1">
                    <mxGeometry x="34" y="649" width="140" height="30" as="geometry"/>
                </mxCell>
                <mxCell id="158" style="sketch=0;html=1;exitX=0;exitY=1;exitDx=0;exitDy=0;strokeColor=#000000;strokeWidth=1;fontSize=16;fontColor=#000000;endArrow=classic;endFill=1;" edge="1" parent="1" source="103">
                    <mxGeometry relative="1" as="geometry">
                        <mxPoint x="537" y="455" as="targetPoint"/>
                    </mxGeometry>
                </mxCell>
                <mxCell id="103" value="Liquidfront" style="text;html=1;fillColor=none;align=center;verticalAlign=middle;whiteSpace=wrap;rounded=0;hachureGap=4;fontFamily=Helvetica;fontSize=20;strokeColor=none;fontColor=#000000;" vertex="1" parent="1">
                    <mxGeometry x="652" y="356" width="98" height="24" as="geometry"/>
                </mxCell>
                <mxCell id="104" value="" style="endArrow=classic;html=1;strokeColor=#000000;fontSize=16;exitX=0;exitY=1;exitDx=0;exitDy=0;" edge="1" parent="1" source="105">
                    <mxGeometry width="50" height="50" relative="1" as="geometry">
                        <mxPoint x="669" y="691" as="sourcePoint"/>
                        <mxPoint x="559" y="595" as="targetPoint"/>
                    </mxGeometry>
                </mxCell>
                <mxCell id="105" value="Air bubbles" style="text;html=1;fillColor=none;align=center;verticalAlign=middle;whiteSpace=wrap;rounded=0;hachureGap=4;fontFamily=Helvetica;fontSize=20;strokeColor=none;fontColor=#000000;" vertex="1" parent="1">
                    <mxGeometry x="646" y="515" width="140" height="30" as="geometry"/>
                </mxCell>
                <mxCell id="106" value="&lt;font color=&quot;#000000&quot;&gt;Rotor&lt;/font&gt;" style="rounded=1;whiteSpace=wrap;html=1;fontSize=16;fillColor=none;strokeColor=#000000;" vertex="1" parent="1">
                    <mxGeometry x="378.5" y="174.5" width="63" height="60" as="geometry"/>
                </mxCell>
                <mxCell id="108" value="" style="endArrow=none;html=1;strokeColor=#000000;fontSize=16;fontColor=#000000;entryX=0.5;entryY=0.745;entryDx=0;entryDy=0;entryPerimeter=0;strokeWidth=2;" edge="1" parent="1" source="106" target="2">
                    <mxGeometry width="50" height="50" relative="1" as="geometry">
                        <mxPoint x="410" y="284.5" as="sourcePoint"/>
                        <mxPoint x="410" y="305.21067811865476" as="targetPoint"/>
                    </mxGeometry>
                </mxCell>
                <mxCell id="109" value="Rotor blade" style="rounded=0;whiteSpace=wrap;html=1;strokeColor=#000000;fontSize=16;fontColor=#000000;fillColor=#FFFFFF;" vertex="1" parent="1">
                    <mxGeometry x="331" y="630" width="160.5" height="60" as="geometry"/>
                </mxCell>
                <mxCell id="110" value="Rotor balde" style="rounded=0;whiteSpace=wrap;html=1;strokeColor=#000000;fontSize=16;fontColor=#000000;fillColor=#FFFFFF;" vertex="1" parent="1">
                    <mxGeometry x="332" y="535" width="160" height="60" as="geometry"/>
                </mxCell>
                <mxCell id="111" value="" style="shape=waypoint;fillStyle=solid;size=6;pointerEvents=1;points=[];fillColor=none;resizable=0;rotatable=0;perimeter=centerPerimeter;snapToPoint=1;hachureGap=4;fontFamily=Helvetica;fontSize=20;strokeColor=#000000;fontColor=#000000;" vertex="1" parent="1">
                    <mxGeometry x="281" y="547" width="20" height="20" as="geometry"/>
                </mxCell>
                <mxCell id="112" value="" style="shape=waypoint;fillStyle=solid;size=6;pointerEvents=1;points=[];fillColor=none;resizable=0;rotatable=0;perimeter=centerPerimeter;snapToPoint=1;hachureGap=4;fontFamily=Helvetica;fontSize=20;strokeColor=#000000;fontColor=#000000;" vertex="1" parent="1">
                    <mxGeometry x="281" y="632" width="20" height="20" as="geometry"/>
                </mxCell>
                <mxCell id="113" value="" style="shape=waypoint;fillStyle=solid;size=6;pointerEvents=1;points=[];fillColor=none;resizable=0;rotatable=0;perimeter=centerPerimeter;snapToPoint=1;hachureGap=4;fontFamily=Helvetica;fontSize=20;strokeColor=#000000;fontColor=#000000;" vertex="1" parent="1">
                    <mxGeometry x="525" y="632" width="20" height="20" as="geometry"/>
                </mxCell>
                <mxCell id="114" value="" style="shape=waypoint;fillStyle=solid;size=6;pointerEvents=1;points=[];fillColor=none;resizable=0;rotatable=0;perimeter=centerPerimeter;snapToPoint=1;hachureGap=4;fontFamily=Helvetica;fontSize=20;strokeColor=#000000;fontColor=#000000;" vertex="1" parent="1">
                    <mxGeometry x="525" y="581" width="20" height="20" as="geometry"/>
                </mxCell>
                <mxCell id="115" value="" style="shape=waypoint;fillStyle=solid;size=6;pointerEvents=1;points=[];fillColor=none;resizable=0;rotatable=0;perimeter=centerPerimeter;snapToPoint=1;hachureGap=4;fontFamily=Helvetica;fontSize=20;strokeColor=#000000;fontColor=#000000;" vertex="1" parent="1">
                    <mxGeometry x="505" y="652" width="20" height="20" as="geometry"/>
                </mxCell>
                <mxCell id="116" value="" style="shape=waypoint;fillStyle=solid;size=6;pointerEvents=1;points=[];fillColor=none;resizable=0;rotatable=0;perimeter=centerPerimeter;snapToPoint=1;hachureGap=4;fontFamily=Helvetica;fontSize=20;strokeColor=#000000;fontColor=#000000;" vertex="1" parent="1">
                    <mxGeometry x="383" y="601" width="20" height="20" as="geometry"/>
                </mxCell>
                <mxCell id="117" value="" style="shape=waypoint;fillStyle=solid;size=6;pointerEvents=1;points=[];fillColor=none;resizable=0;rotatable=0;perimeter=centerPerimeter;snapToPoint=1;hachureGap=4;fontFamily=Helvetica;fontSize=20;strokeColor=#000000;fontColor=#000000;" vertex="1" parent="1">
                    <mxGeometry x="433" y="477" width="20" height="20" as="geometry"/>
                </mxCell>
                <mxCell id="118" value="" style="shape=waypoint;fillStyle=solid;size=6;pointerEvents=1;points=[];fillColor=none;resizable=0;rotatable=0;perimeter=centerPerimeter;snapToPoint=1;hachureGap=4;fontFamily=Helvetica;fontSize=20;strokeColor=#000000;fontColor=#000000;" vertex="1" parent="1">
                    <mxGeometry x="460" y="601" width="20" height="20" as="geometry"/>
                </mxCell>
                <mxCell id="119" value="" style="shape=waypoint;fillStyle=solid;size=6;pointerEvents=1;points=[];fillColor=none;resizable=0;rotatable=0;perimeter=centerPerimeter;snapToPoint=1;hachureGap=4;fontFamily=Helvetica;fontSize=20;strokeColor=#000000;fontColor=#000000;" vertex="1" parent="1">
                    <mxGeometry x="417" y="750" width="20" height="20" as="geometry"/>
                </mxCell>
                <mxCell id="120" value="" style="shape=waypoint;fillStyle=solid;size=6;pointerEvents=1;points=[];fillColor=none;resizable=0;rotatable=0;perimeter=centerPerimeter;snapToPoint=1;hachureGap=4;fontFamily=Helvetica;fontSize=20;strokeColor=#000000;fontColor=#000000;" vertex="1" parent="1">
                    <mxGeometry x="505" y="555" width="20" height="20" as="geometry"/>
                </mxCell>
                <mxCell id="121" value="" style="shape=waypoint;fillStyle=solid;size=6;pointerEvents=1;points=[];fillColor=none;resizable=0;rotatable=0;perimeter=centerPerimeter;snapToPoint=1;hachureGap=4;fontFamily=Helvetica;fontSize=20;strokeColor=#000000;fontColor=#000000;" vertex="1" parent="1">
                    <mxGeometry x="363" y="495" width="20" height="20" as="geometry"/>
                </mxCell>
                <mxCell id="122" value="" style="shape=waypoint;fillStyle=solid;size=6;pointerEvents=1;points=[];fillColor=none;resizable=0;rotatable=0;perimeter=centerPerimeter;snapToPoint=1;hachureGap=4;fontFamily=Helvetica;fontSize=20;strokeColor=#000000;fontColor=#000000;" vertex="1" parent="1">
                    <mxGeometry x="466" y="497" width="20" height="20" as="geometry"/>
                </mxCell>
                <mxCell id="123" value="" style="shape=waypoint;fillStyle=solid;size=6;pointerEvents=1;points=[];fillColor=none;resizable=0;rotatable=0;perimeter=centerPerimeter;snapToPoint=1;hachureGap=4;fontFamily=Helvetica;fontSize=20;strokeColor=#000000;fontColor=#000000;" vertex="1" parent="1">
                    <mxGeometry x="529" y="601" width="20" height="20" as="geometry"/>
                </mxCell>
                <mxCell id="124" value="" style="shape=waypoint;fillStyle=solid;size=6;pointerEvents=1;points=[];fillColor=none;resizable=0;rotatable=0;perimeter=centerPerimeter;snapToPoint=1;hachureGap=4;fontFamily=Helvetica;fontSize=20;strokeColor=#000000;fontColor=#000000;" vertex="1" parent="1">
                    <mxGeometry x="535" y="523" width="20" height="20" as="geometry"/>
                </mxCell>
                <mxCell id="125" value="" style="shape=waypoint;fillStyle=solid;size=6;pointerEvents=1;points=[];fillColor=none;resizable=0;rotatable=0;perimeter=centerPerimeter;snapToPoint=1;hachureGap=4;fontFamily=Helvetica;fontSize=20;strokeColor=#000000;fontColor=#000000;" vertex="1" parent="1">
                    <mxGeometry x="549" y="561" width="20" height="20" as="geometry"/>
                </mxCell>
                <mxCell id="126" value="" style="shape=waypoint;fillStyle=solid;size=6;pointerEvents=1;points=[];fillColor=none;resizable=0;rotatable=0;perimeter=centerPerimeter;snapToPoint=1;hachureGap=4;fontFamily=Helvetica;fontSize=20;strokeColor=#000000;fontColor=#000000;" vertex="1" parent="1">
                    <mxGeometry x="268" y="589" width="20" height="20" as="geometry"/>
                </mxCell>
                <mxCell id="127" value="" style="shape=waypoint;fillStyle=solid;size=6;pointerEvents=1;points=[];fillColor=none;resizable=0;rotatable=0;perimeter=centerPerimeter;snapToPoint=1;hachureGap=4;fontFamily=Helvetica;fontSize=20;strokeColor=#000000;fontColor=#000000;" vertex="1" parent="1">
                    <mxGeometry x="250" y="665" width="20" height="20" as="geometry"/>
                </mxCell>
                <mxCell id="128" value="" style="shape=waypoint;fillStyle=solid;size=6;pointerEvents=1;points=[];fillColor=none;resizable=0;rotatable=0;perimeter=centerPerimeter;snapToPoint=1;hachureGap=4;fontFamily=Helvetica;fontSize=20;strokeColor=#000000;fontColor=#000000;" vertex="1" parent="1">
                    <mxGeometry x="245" y="552" width="20" height="20" as="geometry"/>
                </mxCell>
                <mxCell id="129" value="" style="shape=waypoint;fillStyle=solid;size=6;pointerEvents=1;points=[];fillColor=none;resizable=0;rotatable=0;perimeter=centerPerimeter;snapToPoint=1;hachureGap=4;fontFamily=Helvetica;fontSize=20;strokeColor=#000000;fontColor=#000000;" vertex="1" parent="1">
                    <mxGeometry x="525" y="705" width="20" height="20" as="geometry"/>
                </mxCell>
                <mxCell id="130" value="" style="shape=waypoint;fillStyle=solid;size=6;pointerEvents=1;points=[];fillColor=none;resizable=0;rotatable=0;perimeter=centerPerimeter;snapToPoint=1;hachureGap=4;fontFamily=Helvetica;fontSize=20;strokeColor=#000000;fontColor=#000000;" vertex="1" parent="1">
                    <mxGeometry x="512" y="670" width="20" height="20" as="geometry"/>
                </mxCell>
                <mxCell id="131" value="" style="shape=waypoint;fillStyle=solid;size=6;pointerEvents=1;points=[];fillColor=none;resizable=0;rotatable=0;perimeter=centerPerimeter;snapToPoint=1;hachureGap=4;fontFamily=Helvetica;fontSize=20;strokeColor=#000000;fontColor=#000000;" vertex="1" parent="1">
                    <mxGeometry x="273" y="667" width="20" height="20" as="geometry"/>
                </mxCell>
                <mxCell id="132" value="" style="shape=waypoint;fillStyle=solid;size=6;pointerEvents=1;points=[];fillColor=none;resizable=0;rotatable=0;perimeter=centerPerimeter;snapToPoint=1;hachureGap=4;fontFamily=Helvetica;fontSize=20;strokeColor=#000000;fontColor=#000000;" vertex="1" parent="1">
                    <mxGeometry x="257" y="685" width="20" height="20" as="geometry"/>
                </mxCell>
                <mxCell id="133" value="" style="shape=waypoint;fillStyle=solid;size=6;pointerEvents=1;points=[];fillColor=none;resizable=0;rotatable=0;perimeter=centerPerimeter;snapToPoint=1;hachureGap=4;fontFamily=Helvetica;fontSize=20;strokeColor=#000000;fontColor=#000000;" vertex="1" parent="1">
                    <mxGeometry x="250" y="618" width="20" height="20" as="geometry"/>
                </mxCell>
                <mxCell id="134" value="" style="shape=waypoint;fillStyle=solid;size=6;pointerEvents=1;points=[];fillColor=none;resizable=0;rotatable=0;perimeter=centerPerimeter;snapToPoint=1;hachureGap=4;fontFamily=Helvetica;fontSize=20;strokeColor=#000000;fontColor=#000000;" vertex="1" parent="1">
                    <mxGeometry x="291" y="687" width="20" height="20" as="geometry"/>
                </mxCell>
                <mxCell id="135" value="" style="shape=waypoint;fillStyle=solid;size=6;pointerEvents=1;points=[];fillColor=none;resizable=0;rotatable=0;perimeter=centerPerimeter;snapToPoint=1;hachureGap=4;fontFamily=Helvetica;fontSize=20;strokeColor=#000000;fontColor=#000000;" vertex="1" parent="1">
                    <mxGeometry x="311" y="735" width="20" height="20" as="geometry"/>
                </mxCell>
                <mxCell id="136" value="" style="shape=waypoint;fillStyle=solid;size=6;pointerEvents=1;points=[];fillColor=none;resizable=0;rotatable=0;perimeter=centerPerimeter;snapToPoint=1;hachureGap=4;fontFamily=Helvetica;fontSize=20;strokeColor=#000000;fontColor=#000000;" vertex="1" parent="1">
                    <mxGeometry x="273" y="718" width="20" height="20" as="geometry"/>
                </mxCell>
                <mxCell id="137" value="" style="shape=waypoint;fillStyle=solid;size=6;pointerEvents=1;points=[];fillColor=none;resizable=0;rotatable=0;perimeter=centerPerimeter;snapToPoint=1;hachureGap=4;fontFamily=Helvetica;fontSize=20;strokeColor=#000000;fontColor=#000000;" vertex="1" parent="1">
                    <mxGeometry x="349" y="735" width="20" height="20" as="geometry"/>
                </mxCell>
                <mxCell id="138" value="" style="shape=waypoint;fillStyle=solid;size=6;pointerEvents=1;points=[];fillColor=none;resizable=0;rotatable=0;perimeter=centerPerimeter;snapToPoint=1;hachureGap=4;fontFamily=Helvetica;fontSize=20;strokeColor=#000000;fontColor=#000000;" vertex="1" parent="1">
                    <mxGeometry x="378.5" y="740" width="20" height="20" as="geometry"/>
                </mxCell>
                <mxCell id="139" value="" style="shape=waypoint;fillStyle=solid;size=6;pointerEvents=1;points=[];fillColor=none;resizable=0;rotatable=0;perimeter=centerPerimeter;snapToPoint=1;hachureGap=4;fontFamily=Helvetica;fontSize=20;strokeColor=#000000;fontColor=#000000;" vertex="1" parent="1">
                    <mxGeometry x="446" y="733" width="20" height="20" as="geometry"/>
                </mxCell>
                <mxCell id="140" value="" style="shape=waypoint;fillStyle=solid;size=6;pointerEvents=1;points=[];fillColor=none;resizable=0;rotatable=0;perimeter=centerPerimeter;snapToPoint=1;hachureGap=4;fontFamily=Helvetica;fontSize=20;strokeColor=#000000;fontColor=#000000;" vertex="1" parent="1">
                    <mxGeometry x="476" y="740" width="20" height="20" as="geometry"/>
                </mxCell>
                <mxCell id="141" value="" style="shape=waypoint;fillStyle=solid;size=6;pointerEvents=1;points=[];fillColor=none;resizable=0;rotatable=0;perimeter=centerPerimeter;snapToPoint=1;hachureGap=4;fontFamily=Helvetica;fontSize=20;strokeColor=#000000;fontColor=#000000;" vertex="1" parent="1">
                    <mxGeometry x="515" y="733" width="20" height="20" as="geometry"/>
                </mxCell>
                <mxCell id="143" value="" style="shape=waypoint;fillStyle=solid;size=6;pointerEvents=1;points=[];fillColor=none;resizable=0;rotatable=0;perimeter=centerPerimeter;snapToPoint=1;hachureGap=4;fontFamily=Helvetica;fontSize=20;strokeColor=#000000;fontColor=#000000;" vertex="1" parent="1">
                    <mxGeometry x="545" y="680" width="20" height="20" as="geometry"/>
                </mxCell>
                <mxCell id="145" value="" style="shape=waypoint;fillStyle=solid;size=6;pointerEvents=1;points=[];fillColor=none;resizable=0;rotatable=0;perimeter=centerPerimeter;snapToPoint=1;hachureGap=4;fontFamily=Helvetica;fontSize=20;strokeColor=#000000;fontColor=#000000;" vertex="1" parent="1">
                    <mxGeometry x="558" y="609" width="20" height="20" as="geometry"/>
                </mxCell>
                <mxCell id="147" value="" style="shape=waypoint;fillStyle=solid;size=6;pointerEvents=1;points=[];fillColor=none;resizable=0;rotatable=0;perimeter=centerPerimeter;snapToPoint=1;hachureGap=4;fontFamily=Helvetica;fontSize=20;strokeColor=#000000;fontColor=#000000;" vertex="1" parent="1">
                    <mxGeometry x="316" y="609" width="20" height="20" as="geometry"/>
                </mxCell>
                <mxCell id="148" value="" style="shape=waypoint;fillStyle=solid;size=6;pointerEvents=1;points=[];fillColor=none;resizable=0;rotatable=0;perimeter=centerPerimeter;snapToPoint=1;hachureGap=4;fontFamily=Helvetica;fontSize=20;strokeColor=#000000;fontColor=#000000;" vertex="1" parent="1">
                    <mxGeometry x="265" y="482" width="20" height="20" as="geometry"/>
                </mxCell>
                <mxCell id="149" value="" style="shape=waypoint;fillStyle=solid;size=6;pointerEvents=1;points=[];fillColor=none;resizable=0;rotatable=0;perimeter=centerPerimeter;snapToPoint=1;hachureGap=4;fontFamily=Helvetica;fontSize=20;strokeColor=#000000;fontColor=#000000;" vertex="1" parent="1">
                    <mxGeometry x="529" y="482" width="20" height="20" as="geometry"/>
                </mxCell>
                <mxCell id="150" value="" style="shape=waypoint;fillStyle=solid;size=6;pointerEvents=1;points=[];fillColor=none;resizable=0;rotatable=0;perimeter=centerPerimeter;snapToPoint=1;hachureGap=4;fontFamily=Helvetica;fontSize=20;strokeColor=#000000;fontColor=#000000;" vertex="1" parent="1">
                    <mxGeometry x="570" y="482" width="20" height="20" as="geometry"/>
                </mxCell>
                <mxCell id="151" value="" style="shape=waypoint;fillStyle=solid;size=6;pointerEvents=1;points=[];fillColor=none;resizable=0;rotatable=0;perimeter=centerPerimeter;snapToPoint=1;hachureGap=4;fontFamily=Helvetica;fontSize=20;strokeColor=#000000;fontColor=#000000;" vertex="1" parent="1">
                    <mxGeometry x="349" y="601" width="20" height="20" as="geometry"/>
                </mxCell>
                <mxCell id="157" value="" style="pointerEvents=1;verticalLabelPosition=bottom;shadow=0;dashed=0;align=center;html=1;verticalAlign=top;shape=mxgraph.electrical.waveforms.sine_wave;strokeColor=#000000;fontSize=16;fontColor=#000000;fillColor=#FFFFFF;" vertex="1" parent="1">
                    <mxGeometry x="231" y="445" width="358" height="24" as="geometry"/>
                </mxCell>
                <mxCell id="166" value="" style="shape=cylinder3;whiteSpace=wrap;html=1;boundedLbl=1;backgroundOutline=1;size=15;strokeColor=#000000;fontSize=16;fontColor=#000000;fillColor=#FFFFFF;rotation=90;" vertex="1" parent="1">
                    <mxGeometry x="273" y="635.25" width="12.75" height="290.5" as="geometry"/>
                </mxCell>
                <mxCell id="152" value="Aerator" style="rounded=1;whiteSpace=wrap;html=1;strokeColor=#000000;fontSize=16;fontColor=#000000;fillColor=#FFFFFF;" vertex="1" parent="1">
                    <mxGeometry x="85" y="753" width="75" height="55" as="geometry"/>
                </mxCell>
                <mxCell id="168" value="Submerged aerator" style="rounded=1;whiteSpace=wrap;html=1;strokeColor=#000000;fontSize=16;fontColor=#000000;fillColor=#FFFFFF;" vertex="1" parent="1">
                    <mxGeometry x="295.75" y="770" width="231" height="21" as="geometry"/>
                </mxCell>
                <mxCell id="170" style="sketch=0;html=1;exitX=0;exitY=0;exitDx=0;exitDy=15;exitPerimeter=0;entryX=0;entryY=1;entryDx=0;entryDy=-15;entryPerimeter=0;strokeColor=#000000;strokeWidth=1;fontSize=16;fontColor=#000000;endArrow=classic;endFill=1;curved=1;" edge="1" parent="1" source="2" target="2">
                    <mxGeometry relative="1" as="geometry">
                        <Array as="points">
                            <mxPoint x="177" y="579"/>
                        </Array>
                    </mxGeometry>
                </mxCell>
                <mxCell id="173" value="Reaction medium" style="text;html=1;fillColor=none;align=center;verticalAlign=middle;whiteSpace=wrap;rounded=0;hachureGap=4;fontFamily=Helvetica;fontSize=20;strokeColor=none;fontColor=#000000;" vertex="1" parent="1">
                    <mxGeometry x="326.5" y="703" width="167" height="24" as="geometry"/>
                </mxCell>
            </root>
        </mxGraphModel>
    </diagram>
</mxfile>